<mxfile host="Electron" modified="2023-08-14T13:36:47.124Z" agent="Mozilla/5.0 (Windows NT 10.0; Win64; x64) AppleWebKit/537.36 (KHTML, like Gecko) draw.io/21.6.8 Chrome/114.0.5735.289 Electron/25.5.0 Safari/537.36" etag="5oRv86YpAVp74jA0yl8i" version="21.6.8" type="device" pages="3">
  <diagram name="10.2" id="3RZr0SLzSYvBF4csiPxm">
    <mxGraphModel dx="880" dy="545" grid="1" gridSize="10" guides="1" tooltips="1" connect="1" arrows="1" fold="1" page="1" pageScale="1" pageWidth="1169" pageHeight="827" math="0" shadow="0">
      <root>
        <mxCell id="0" />
        <mxCell id="1" parent="0" />
        <mxCell id="qvXS0A_NFR92ZOLa0o4F-1" value="«primitive»&lt;br&gt;&lt;b&gt;Integer&lt;/b&gt;" style="html=1;align=center;verticalAlign=middle;dashed=0;whiteSpace=wrap;" vertex="1" parent="1">
          <mxGeometry width="120" height="40" as="geometry" />
        </mxCell>
        <mxCell id="qvXS0A_NFR92ZOLa0o4F-2" value="&lt;b&gt;Figure 10.2 PrimitiveType Notation&lt;/b&gt;" style="text;html=1;align=left;verticalAlign=middle;resizable=0;points=[];autosize=1;strokeColor=none;fillColor=none;fontSize=11;fontFamily=Helvetica;fontColor=default;" vertex="1" parent="1">
          <mxGeometry y="40" width="200" height="30" as="geometry" />
        </mxCell>
      </root>
    </mxGraphModel>
  </diagram>
  <diagram id="_x_eFGZxKmb3_0L3lhdo" name="10.3">
    <mxGraphModel dx="880" dy="545" grid="1" gridSize="10" guides="1" tooltips="1" connect="1" arrows="1" fold="1" page="1" pageScale="1" pageWidth="1169" pageHeight="827" math="0" shadow="0">
      <root>
        <mxCell id="0" />
        <mxCell id="1" parent="0" />
        <mxCell id="N4dxGn3eJYXkvROWt6ex-1" value="«dataType»&lt;br&gt;&lt;b&gt;FullName&lt;/b&gt;" style="swimlane;fontStyle=0;align=center;verticalAlign=top;childLayout=stackLayout;horizontal=1;startSize=40;horizontalStack=0;resizeParent=1;resizeParentMax=0;resizeLast=0;collapsible=0;marginBottom=0;html=1;whiteSpace=wrap;" vertex="1" parent="1">
          <mxGeometry x="10" y="10" width="140" height="90" as="geometry" />
        </mxCell>
        <mxCell id="N4dxGn3eJYXkvROWt6ex-2" value="firstName : String&lt;br&gt;secondName : String&lt;br&gt;initial : String" style="text;html=1;strokeColor=none;fillColor=none;align=left;verticalAlign=middle;spacingLeft=4;spacingRight=4;overflow=hidden;rotatable=0;points=[[0,0.5],[1,0.5]];portConstraint=eastwest;whiteSpace=wrap;" vertex="1" parent="N4dxGn3eJYXkvROWt6ex-1">
          <mxGeometry y="40" width="140" height="50" as="geometry" />
        </mxCell>
        <mxCell id="N4dxGn3eJYXkvROWt6ex-3" value="«dataType»&lt;br&gt;&lt;b&gt;Person&lt;/b&gt;" style="swimlane;fontStyle=0;align=center;verticalAlign=top;childLayout=stackLayout;horizontal=1;startSize=40;horizontalStack=0;resizeParent=1;resizeParentMax=0;resizeLast=0;collapsible=0;marginBottom=0;html=1;whiteSpace=wrap;" vertex="1" parent="1">
          <mxGeometry x="210" y="10" width="140" height="60" as="geometry" />
        </mxCell>
        <mxCell id="N4dxGn3eJYXkvROWt6ex-4" value="fullName : FullName" style="text;html=1;strokeColor=none;fillColor=none;align=left;verticalAlign=middle;spacingLeft=4;spacingRight=4;overflow=hidden;rotatable=0;points=[[0,0.5],[1,0.5]];portConstraint=eastwest;whiteSpace=wrap;" vertex="1" parent="N4dxGn3eJYXkvROWt6ex-3">
          <mxGeometry y="40" width="140" height="20" as="geometry" />
        </mxCell>
        <mxCell id="N4dxGn3eJYXkvROWt6ex-5" value="&lt;b&gt;Figure 10.3 DataType Notation&lt;/b&gt;" style="text;html=1;align=left;verticalAlign=middle;resizable=0;points=[];autosize=1;strokeColor=none;fillColor=none;fontSize=11;fontFamily=Helvetica;fontColor=default;" vertex="1" parent="1">
          <mxGeometry x="10" y="100" width="180" height="30" as="geometry" />
        </mxCell>
      </root>
    </mxGraphModel>
  </diagram>
  <diagram id="ZjcysKDKXAwDYU4Nash_" name="10.4">
    <mxGraphModel dx="880" dy="545" grid="1" gridSize="10" guides="1" tooltips="1" connect="1" arrows="1" fold="1" page="1" pageScale="1" pageWidth="1169" pageHeight="827" math="0" shadow="0">
      <root>
        <mxCell id="0" />
        <mxCell id="1" parent="0" />
        <mxCell id="Z3I53ozFqeQPkmj6VL1L-1" value="«enumeration»&lt;br&gt;&lt;b&gt;VisibilityKind&lt;/b&gt;" style="swimlane;fontStyle=0;align=center;verticalAlign=top;childLayout=stackLayout;horizontal=1;startSize=40;horizontalStack=0;resizeParent=1;resizeParentMax=0;resizeLast=0;collapsible=0;marginBottom=0;html=1;whiteSpace=wrap;" vertex="1" parent="1">
          <mxGeometry x="10" y="10" width="120" height="120" as="geometry" />
        </mxCell>
        <mxCell id="Z3I53ozFqeQPkmj6VL1L-2" value="public&lt;br&gt;private&lt;br&gt;protected&lt;br&gt;package" style="text;html=1;strokeColor=none;fillColor=none;align=left;verticalAlign=middle;spacingLeft=4;spacingRight=4;overflow=hidden;rotatable=0;points=[[0,0.5],[1,0.5]];portConstraint=eastwest;whiteSpace=wrap;" vertex="1" parent="Z3I53ozFqeQPkmj6VL1L-1">
          <mxGeometry y="40" width="120" height="80" as="geometry" />
        </mxCell>
        <mxCell id="Z3I53ozFqeQPkmj6VL1L-3" value="&lt;b&gt;Figure 10.4 Enumeration Notation&lt;/b&gt;" style="text;html=1;align=left;verticalAlign=middle;resizable=0;points=[];autosize=1;strokeColor=none;fillColor=none;fontSize=11;fontFamily=Helvetica;fontColor=default;" vertex="1" parent="1">
          <mxGeometry x="10" y="130" width="200" height="30" as="geometry" />
        </mxCell>
      </root>
    </mxGraphModel>
  </diagram>
</mxfile>
